PathFileType	4	(X/Y/Z)	Patient3_R_KneeIso_Processed.trc
DataRate	CameraRate	NumFrames	NumMarkers	Units	OrigDataRate	OrigDataStartFrame	OrigNumFrames
100.000000000000	100.000000000000	7	33	mm	100.000000000000	189	       301
Frame#	Time	L.Toe			Neck			R.Toe			R.Shoulder			L.Wrist			L.Shank.Lateral			L.Elbow			R.Shank.Lateral			L.Shoulder			R.Midfoot.Lateral			L.Midfoot.Superior			R.Midfoot.Superior			R.Heel			R.Thigh.Lateral			L.Heel			R.Patella			L.Midfoot.Lateral			R.Elbow			R.Wrist			R.Shank.Inferior			Sternum			R.Thigh.Inferior			L.Shank.Inferior			R.Shank.Superior			L.Thigh.Superior			R.Thigh.Superior			R.Asis			L.Asis			L.Shank.Superior			L.Patella			Sacral			L.Thigh.Lateral			L.Thigh.Inferior			
		X1	Y1	Z1	X2	Y2	Z2	X3	Y3	Z3	X4	Y4	Z4	X5	Y5	Z5	X6	Y6	Z6	X7	Y7	Z7	X8	Y8	Z8	X9	Y9	Z9	X10	Y10	Z10	X11	Y11	Z11	X12	Y12	Z12	X13	Y13	Z13	X14	Y14	Z14	X15	Y15	Z15	X16	Y16	Z16	X17	Y17	Z17	X18	Y18	Z18	X19	Y19	Z19	X20	Y20	Z20	X21	Y21	Z21	X22	Y22	Z22	X23	Y23	Z23	X24	Y24	Z24	X25	Y25	Z25	X26	Y26	Z26	X27	Y27	Z27	X28	Y28	Z28	X29	Y29	Z29	X30	Y30	Z30	X31	Y31	Z31	X32	Y32	Z32	X33	Y33	Z33	

189	2.880000000000	650.394952850797	43.005648352137	367.183135982255	462.643581952966	1481.732834661546	349.763931917292	175.021758969185	326.415584446717	657.077942351877	510.618049652320	1460.353193050490	493.941379516079	512.813758967783	1070.746708331461	-48.369588296762	415.361970631052	322.587159107337	295.290790560630	327.288353754393	1138.910645734645	117.861675765883	460.592792791014	566.197632807673	648.401666935687	485.116280407293	1442.175268300868	202.282732171981	138.012275107747	539.741298372287	647.397703478422	532.356947775131	89.958060053720	388.686334801761	207.914980325904	451.576889360579	619.366718301384	130.216163886000	607.793986130752	568.532110113186	571.829352333531	698.685570561582	623.703004265478	363.665323233336	33.223232678570	437.624371905557	652.534145088246	494.974110668220	579.756543245379	435.185462090045	27.334634748277	365.094955728228	539.823158252361	1154.631154023427	666.351253848362	667.508649945810	1236.368080306296	464.676072147484	328.695997829759	495.193805208605	608.615948287343	598.545220768094	1384.842253404031	347.167380732344	663.583851022151	640.902907790946	561.227321292344	491.178650692226	229.811724828789	362.621913846484	503.208079750427	473.222423695264	611.409068971398	599.085850931449	720.451432256477	274.109660789174	644.422755640585	752.371627145307	551.963016280188	574.477414869757	992.947259697913	515.477812367863	571.579496055009	950.912814212050	253.932293656596	509.858959835560	380.955217645211	325.773368875622	553.988584528290	489.506238897322	331.387233759630	402.115216138932	1007.231945683532	386.952032248934	490.854985958781	651.823943480451	247.320110296487	570.850552372130	598.348024221540	301.778419575947	
190	2.890000000000	650.404879533034	42.981121098703	367.190147837308	462.795353347392	1481.688402977969	349.417778219289	178.536131805989	319.478138602264	657.944528018686	510.716776193503	1460.379954220164	493.634426882023	512.984428431493	1070.586685900342	-48.516948832827	415.586345786021	322.596234779199	295.263943303134	327.441457369946	1138.796604742108	117.657920811415	460.043324798384	563.901925762383	648.433392496132	485.333270524211	1442.051025657099	201.966154325869	137.876165425921	532.099182134918	648.489569067047	532.372676183971	89.950286082719	388.692716852381	209.224606925325	445.172939917537	620.228713016109	128.634113573809	600.025492105978	569.665940028157	571.872576437057	698.513383213477	623.379642728456	363.669165043906	33.234486859060	437.621200573783	652.838194582116	495.043377741972	579.361102416561	435.191294358970	27.339720497942	365.094513107743	539.851735042981	1154.746126452109	666.213790292628	667.637615298674	1236.383139513046	464.557310953857	329.131358232324	490.754482886990	609.097335072693	598.706337604289	1384.803322542187	346.933249056339	663.548500111452	640.774757331517	560.902577592602	491.317305625659	229.789602295791	362.622526916830	503.927888779132	471.603026942210	611.333901537643	599.567653163149	720.432992175560	274.207571017456	644.505755347182	752.256470444008	551.717960070995	574.674175133346	993.006497217511	515.441996375272	572.024273869144	950.911389933056	253.908281152572	510.111104272974	380.922614397776	325.763575984912	554.297274829696	489.448505803806	331.399784379711	402.429846505818	1007.136041133078	386.793389035005	491.357072857884	651.796681605926	247.288277058540	571.258263862631	598.308515996932	301.829326867855	
191	2.900000000000	650.414705452786	42.954648315581	367.196631591475	462.952329508011	1481.643189257534	349.075727327212	182.317944317090	312.350967399548	658.796343515634	510.812711483591	1460.406171900431	493.334000438926	513.176975917496	1070.417977330193	-48.649701871209	415.800798535126	322.603314043302	295.241328291774	327.606263096764	1138.680309823962	117.454956853181	459.523929185092	561.525072213335	648.447034133412	485.560581215304	1441.924194468571	201.655529754901	137.878668982664	524.175592035282	649.574394714845	532.388437619325	89.941739950256	388.699618706296	210.714069346693	438.564526777532	621.085736184494	127.143003166648	591.944692953702	570.796529770813	571.930739480769	698.337330355556	623.041542568049	363.673512462350	33.245179982550	437.619141224322	653.171448572599	495.120432694144	578.932767014808	435.196517643856	27.344456251553	365.094064465989	539.849763023818	1154.862555335839	666.089437153267	667.753675970278	1236.389575709206	464.459010704739	329.674460969197	486.163403105550	609.565194506013	598.868763700109	1384.758353675284	346.711323472674	663.526502109116	640.645134447847	560.556240563434	491.451397882381	229.768685205407	362.625127845511	504.724485192253	469.943743550041	611.241382097556	600.041329967948	720.413639881365	274.303127084721	644.596233808432	752.142296740814	551.458307160201	574.862897141968	993.061494109576	515.407430404661	572.462190153249	950.910831345802	253.884029910387	510.353398199515	380.891354128929	325.754875157037	554.590393408281	489.392540484754	331.411929918959	402.736279966666	1007.036961790042	386.636878483905	491.849427709237	651.770359851215	247.257670318423	571.654278728788	598.267390450447	301.878136200066	
192	2.910000000000	650.424375493480	42.926569861969	367.202527747055	463.112858596073	1481.597403237044	348.739612487460	186.362378098623	305.068418500658	659.627771874598	510.905617817249	1460.431293004023	493.041344795206	513.389723024938	1070.241838981716	-48.767401200536	416.005694152118	322.608619808120	295.222437699061	327.781968270547	1138.561978259009	117.254766689325	459.037714159522	559.075469668332	648.443015722021	485.795744445018	1441.796090290702	201.352135986437	138.030688474526	516.001329154604	650.644577710520	532.404143058219	89.932521294314	388.706991327797	212.386142724232	431.779810248638	621.932109352789	125.761391732919	583.580634152856	571.916683730463	572.002217934445	698.158708313204	622.691115915950	363.678352309948	33.255309466157	437.618188870415	653.531457417913	495.205065608178	578.475237240728	435.201108547372	27.348793484537	365.093628534221	539.822438949371	1154.978553160765	665.975970467093	667.858336676112	1236.388600970558	464.378108156259	330.329051608982	481.439195539064	610.016955876944	599.031258998741	1384.708357798995	346.501487373722	663.516918505174	640.514826147568	560.191798393579	491.580925828633	229.748969067903	362.629261970068	505.595624658201	468.252135035227	611.132713575880	600.504676124198	720.393165144527	274.394108313310	644.693565469997	752.030126594754	551.186977190406	575.043357678515	993.112262563762	515.373475425216	572.891659972972	950.911121198582	253.858738819000	510.586037191315	380.861252878816	325.746824389587	554.868622233080	489.338370547368	331.422910264967	403.033671033636	1006.935025466235	386.482266526643	492.329472707038	651.744608814911	247.227378338662	572.037478580182	598.224853681838	301.923652513344	
193	2.920000000000	650.433867365221	42.897270207564	367.207783918060	463.275229082290	1481.551250227095	348.411136383267	190.663085223397	297.664699104289	660.433627940350	510.995177824878	1460.454798453844	492.757567895003	513.620715789584	1070.059830961087	-48.870091924256	416.201594879265	322.612417325304	295.206521755694	327.967634285474	1138.441880326263	117.059068781899	458.587478638692	556.561563826235	648.421557985459	486.036252167112	1441.667965398849	201.057102953817	138.341772900882	507.607878682634	651.692989582090	532.419716042907	89.922749063944	388.714754490955	214.241827009346	424.846936610163	622.762022838602	124.506555498106	574.963326379616	573.019601252089	572.085381674618	697.978796112800	622.330810680331	363.683661563402	33.264894000023	437.618289194117	653.915839381786	495.297072278543	577.992382365389	435.205069316706	27.352693323972	365.093213564362	539.774922711739	1155.092294358287	665.871222662661	667.953110644804	1236.381466932591	464.311553209072	331.098152931181	476.600761791296	610.450347127709	599.192572696746	1384.654363953665	346.303522872414	663.518738056065	640.384702433576	559.812655626728	491.705951054445	229.730394352067	362.634297310285	506.538564543715	466.535664042488	611.009025902694	600.956113425284	720.371590130567	274.478783003487	644.797041431973	751.920950830028	550.906749279769	575.215308874905	993.158863945699	515.339587440869	573.311276045319	950.912303714617	253.831777525204	510.809366205964	380.832065631129	325.738890702420	555.132951996612	489.285976825118	331.431970600188	403.321224041555	1006.830526531535	386.329351793776	492.795415038021	651.719100785099	247.196570373286	572.407273409377	598.181218555519	301.964950881454	
194	2.930000000000	650.443184238394	42.867172168051	367.212359641958	463.437706757580	1481.504939485665	348.091856633460	195.212248178814	290.173339850250	661.208890537738	511.080991732890	1460.476229467831	492.483649834450	513.867716906068	1069.873784473363	-48.958326604485	416.389141777714	322.615012067681	295.192640872278	328.162173120235	1138.320355234348	116.869299661055	458.175743928423	553.991680940222	648.382730201277	486.279586399369	1441.541004802368	200.771421678358	138.820050358574	499.026962158957	652.713128326064	532.435093250015	89.912564683781	388.722794457076	216.280306924687	417.793604004581	623.569425577942	123.394267266262	566.123393005515	574.099066328119	572.178672759471	697.798828929347	621.963070027904	363.689407028563	33.273977375307	437.619338657869	654.322327762621	495.396256525752	577.488178093061	435.208426917722	27.356129557838	365.092820177589	539.712139653455	1155.202076896033	665.773192639602	668.039437882498	1236.369419455027	464.256436676499	331.984071354837	471.667017176893	610.863394761121	599.351459538227	1384.597404918717	346.117139840393	663.530937013948	640.255689320649	559.422070870909	491.826553163535	229.712865970566	362.639457689169	507.550151074407	464.801586814399	610.871318654153	601.394579539790	720.349144786484	274.555897498869	644.905896457597	751.815687701800	550.620190103075	575.378535090785	993.201406478636	515.305295432625	573.719789342669	950.914489317579	253.802665684442	511.023783793186	380.803517159835	325.730461087566	555.384554289122	489.235309307172	331.438346954180	403.598220414625	1006.723761975735	386.177979705936	493.246148291811	651.693586752690	247.164509389527	572.763492710555	598.136887108075	302.001333744676	
195	2.940000000000	650.452343989048	42.836725624618	367.216231574424	463.598574159377	1481.458693864271	347.783170134276	200.000635522900	282.626685784336	661.948422814292	511.162577855028	1460.495212224057	492.220451824798	514.128207082849	1069.685762824950	-49.033159982414	416.568960911107	322.616742913196	295.179730410216	328.364337774423	1138.197830432403	116.686604197442	457.804791896902	551.373869381102	648.326558087540	486.523256845051	1441.416327179992	200.495953472760	139.472195495733	490.290099676935	653.699264462114	532.450223691825	89.902133206013	388.730963825355	218.498959809642	410.646651082426	624.347945410224	122.438605527599	557.091718457609	575.149623704928	572.280663587821	697.619972753744	621.590290110326	363.695545335032	33.282631782907	437.621186675686	654.748791887129	495.502430331575	576.966628195651	435.211230385620	27.359091030249	365.092444937800	539.638617749918	1155.306381443556	665.680129360072	668.118619711898	1236.353668078612	464.210096810476	332.988403213627	466.656641618167	611.254416237865	599.506699396985	1384.538508937421	345.942002988197	663.552530628662	640.128737221532	559.023112766436	491.942799525569	229.696271372612	362.643876360026	508.626908585635	463.056855448000	610.720410073830	601.819391719221	720.326226071730	274.624633057532	645.019338164726	751.715149673936	550.329614586296	575.532901418616	993.240045225303	515.270181008676	574.116086111772	950.917852579970	253.771049759874	511.229668572850	380.775331221817	325.720869837676	555.624670985169	489.186300371681	331.441262987003	403.864042419393	1006.615062577766	386.028046581091	493.681119988053	651.667922612845	247.130562526837	573.106259149141	598.092331885575	302.032274058486	
